<svg width="70" height="63" viewBox="0 0 70 63" fill="none" xmlns="http://www.w3.org/2000/svg">
<path d="M0 36.2411C1.61311 34.0903 2.92151 31.7423 4.35539 29.4661C6.91843 25.4333 9.40978 21.3647 11.937 17.2961C12.7973 15.916 13.3529 15.8084 14.7151 16.6508C17.0452 18.1206 19.3752 19.5724 21.6873 21.0421C22.7986 21.7411 22.8882 21.9382 22.4939 23.157C22.3326 23.6589 22.5297 23.7127 22.9061 23.7664C24.4117 23.9815 25.9172 24.1966 27.4228 24.4117C27.9067 24.4834 28.301 24.3041 28.6595 24.0353C32.0829 21.5081 35.8289 21.0062 39.8796 22.2071C41.9408 22.8165 43.984 23.5155 46.1348 23.6768C46.8518 23.7306 47.0668 23.6051 46.7084 22.9061C46.3678 22.2071 46.565 21.6694 47.2461 21.2392C49.8091 19.662 52.3722 18.0489 54.9352 16.4716C55.9568 15.8443 56.5304 15.9877 57.1577 16.9914C60.7065 22.6373 64.2375 28.2652 67.7684 33.9111C68.1627 34.5384 68.5928 35.1478 69.0051 35.7751C69.5607 36.6354 69.4532 37.3882 68.6108 37.9438C66.0836 39.5928 63.5384 41.2238 60.9933 42.819C60.2405 43.285 59.5774 43.1237 58.9142 42.2634C58.5378 41.7794 58.3227 41.7794 57.9105 42.2275C57.1219 43.1237 56.2795 43.9661 55.4191 44.7906C55.0607 45.149 54.9711 45.4537 55.1682 45.9556C56.2257 48.8233 54.3258 52.1929 51.1892 52.2467C50.7232 52.2646 50.5978 52.4618 50.4723 52.8561C49.845 54.8456 48.429 55.921 46.3499 55.9389C45.6867 55.9568 45.3641 56.1002 45.149 56.7813C44.5396 58.6454 43.2312 59.5594 41.2597 59.6491C40.8116 59.667 40.5069 59.7387 40.238 60.1688C39.6107 61.2263 38.5532 61.7282 37.4599 62.1763C36.7967 62.1763 36.1515 62.1763 35.4883 62.1763C35.0402 61.9612 34.6101 61.7461 34.162 61.531C33.8752 61.4056 33.6422 61.1367 33.2658 61.3518C32.7102 61.6565 32.1187 61.9074 31.5452 62.1763C31.0075 62.1763 30.4698 62.1763 29.9321 62.1763C28.3548 61.6206 27.0643 60.7424 26.4908 59.0576C26.3653 58.6633 26.0248 58.7529 25.738 58.735C23.6589 58.5916 22.2788 57.5341 21.6694 55.5446C21.5081 55.0069 21.2392 54.8994 20.7374 54.8814C18.945 54.7918 17.3319 53.573 16.9018 51.8882C16.7225 51.1892 16.382 51.0279 15.7726 50.9383C12.7615 50.4544 11.1663 47.497 12.3851 44.7189C13.0662 43.1595 13.0662 43.1595 11.7757 42.0483C11.7219 42.0124 11.6861 41.9766 11.6502 41.9228C11.22 41.421 10.9512 41.5285 10.5927 42.0662C9.89371 43.1237 9.14093 43.3567 8.26269 42.7831C5.50248 41.0267 2.7602 39.2164 0.0179234 37.442C0 37.0656 0 36.6533 0 36.2411ZM26.2936 37.4599C25.3258 37.442 24.4475 37.209 23.6768 36.6354C21.992 35.3808 21.5618 33.23 22.5476 31.0612C23.2108 29.6274 24.2324 28.4624 25.2899 27.3153C25.6305 26.9389 25.6663 26.7417 25.0748 26.67C24.0174 26.5266 22.924 26.437 21.9024 26.1144C20.9345 25.8097 20.5223 26.1682 20.0742 26.9209C17.9413 30.3981 15.7547 33.8573 13.568 37.3165C12.3313 39.2881 12.3492 39.2522 14.0699 40.7757C14.6076 41.2597 14.9123 41.2597 15.45 40.7399C17.6904 38.607 21.1496 39.3598 22.2788 42.2275C22.4939 42.7652 22.7627 42.8548 23.2646 42.8548C25.6663 42.8548 27.0106 43.8585 27.6379 46.1169C27.7454 46.4754 27.8709 46.565 28.2293 46.5829C30.8999 46.7442 32.1725 47.8375 32.746 50.4364C32.8177 50.777 32.8715 51.0279 33.2837 51.1354C34.5384 51.4222 35.5062 52.2109 36.2232 53.2146C37.3165 54.6843 38.8579 55.6163 40.2201 56.7634C40.937 57.3728 41.9228 57.1756 42.5322 56.4408C43.1595 55.7059 43.1416 54.9352 42.4426 54.2003C42.1379 53.8777 41.7794 53.591 41.4389 53.3042C39.7362 51.8524 38.0155 50.4185 36.2949 48.9846C35.7034 48.4828 35.5959 47.8734 36.0619 47.2461C36.4562 46.6904 37.3165 46.6008 37.9259 47.0131C38.1051 47.1385 38.2485 47.2819 38.4098 47.4074C40.5965 49.3073 42.8907 51.0638 45.0236 53.0533C45.7047 53.6985 47.031 53.573 47.6942 52.8561C48.3573 52.1392 48.3036 51.2609 47.5508 50.4723C47.264 50.1676 46.9414 49.8987 46.6188 49.6299C44.3604 47.73 42.0841 45.848 39.8258 43.9482C38.9834 43.2492 38.8938 42.586 39.4673 41.9587C40.005 41.3672 40.6861 41.3672 41.4389 41.9945C44.217 44.3425 47.0848 46.6008 49.7733 49.0563C50.6336 49.845 51.6015 49.8091 52.3901 49.0205C53.1966 48.196 53.1608 47.1923 52.3184 46.332C52.0675 46.0811 51.7986 45.8301 51.5298 45.615C46.099 41.0446 40.6503 36.4741 35.2195 31.8857C34.7176 31.4556 34.4129 31.4735 33.9648 31.9216C32.6744 33.2121 31.3659 34.4846 30.0396 35.7213C28.9821 36.743 27.7633 37.3882 26.2936 37.4599ZM35.6496 24.089C34.3412 24.1249 33.1045 24.3758 31.9395 25.0031C28.9642 26.6162 26.8313 29.0717 25.0031 31.832C24.8418 32.0829 24.7522 32.3697 24.6626 32.6564C24.4475 33.3375 24.5909 33.9648 25.1107 34.4667C25.6305 34.9685 26.2757 35.0223 26.9389 34.7893C27.602 34.5742 28.1218 34.1082 28.6237 33.6243C30.2547 32.0829 31.8678 30.5415 33.4988 29.0001C34.2516 28.301 34.7535 28.2831 35.5242 28.9284C37.5854 30.649 39.6466 32.3876 41.7077 34.1082C45.2566 37.0656 48.8233 40.0229 52.3542 42.9982C52.874 43.4463 53.2325 43.4463 53.6985 42.9445C54.6664 41.9228 55.6521 40.937 56.6559 39.9513C57.0143 39.5928 57.0681 39.2881 56.7634 38.8758C56.3512 38.3023 55.9927 37.675 55.5984 37.0656C53.3938 33.5884 51.1713 30.1113 48.9488 26.6521C48.7696 26.3832 48.6799 25.9172 48.1781 26.0785C46.1707 26.67 44.2887 26.0606 42.3888 25.5588C40.1484 24.9673 37.9797 24.1607 35.6496 24.089ZM55.3833 19.196C55.2758 19.2497 55.1682 19.3035 55.0786 19.3573C53.3938 20.4147 51.6911 21.4902 50.0063 22.5476C49.6299 22.7806 49.6299 22.9778 49.8629 23.3183C53.3042 28.6954 56.7276 34.0903 60.133 39.4852C60.4377 39.9692 60.6707 40.0767 61.1905 39.7362C62.7319 38.7145 64.3092 37.7287 65.8864 36.7788C66.3166 36.51 66.3883 36.2949 66.1015 35.8647C65.4025 34.8252 64.7393 33.7498 64.0761 32.6923C61.3876 28.3907 58.6991 24.089 55.9927 19.8054C55.8314 19.5723 55.7597 19.2318 55.3833 19.196ZM19.662 23.0136C19.6978 22.7806 19.5723 22.691 19.4469 22.6014C17.7083 21.5081 15.9518 20.4147 14.2133 19.3035C13.8548 19.0705 13.6756 19.2318 13.4963 19.5365C13.102 20.1997 12.6898 20.8628 12.2775 21.526C9.33809 26.2399 6.39865 30.9358 3.42337 35.6317C3.02905 36.259 3.08282 36.5637 3.72807 36.9401C5.19778 37.8004 6.63166 38.7145 8.04761 39.6645C8.62115 40.0588 8.92585 39.9871 9.30224 39.3777C12.636 34.0724 15.9877 28.7671 19.3393 23.4796C19.4648 23.3183 19.5723 23.1391 19.662 23.0136ZM25.7738 56.1361C26.437 56.1361 26.8492 55.8493 27.1719 55.4371C28.1397 54.2003 29.1076 52.9457 30.0575 51.6731C30.5056 51.0817 30.416 50.4902 30.0217 49.9346C29.3048 48.9129 27.7633 48.895 26.9568 49.9346C26.0606 51.0817 25.2182 52.2825 24.3579 53.4655C23.9636 53.9853 23.856 54.5409 24.1966 55.1324C24.5551 55.7955 25.1465 56.1002 25.7738 56.1361ZM25.3975 47.1027C25.3437 46.6367 25.1824 46.2424 24.8239 45.9197C23.9815 45.167 22.7986 45.2207 22.0637 46.1707C21.2213 47.2102 20.4685 48.3215 19.6799 49.4148C18.963 50.3827 19.0705 51.3864 19.9667 52.0675C20.7553 52.6589 21.7411 52.4797 22.458 51.5477C23.3363 50.4185 24.1607 49.2356 24.9852 48.0706C25.2003 47.7838 25.3795 47.4791 25.3975 47.1027ZM20.1997 43.6972C20.1101 42.9624 19.6978 42.4964 19.0346 42.2275C18.246 41.887 17.547 42.0841 16.9735 42.6398C16.0773 43.518 15.3424 44.5576 14.733 45.6509C14.1774 46.6188 14.3746 47.4791 15.217 48.0885C16.0235 48.662 16.9735 48.5366 17.6725 47.6583C18.4073 46.7263 19.0884 45.7405 19.7874 44.7726C20.0204 44.45 20.1997 44.0916 20.1997 43.6972ZM34.5563 55.6521C34.5384 54.8277 33.8394 54.057 32.997 53.7523C32.2263 53.4655 31.7782 53.7881 31.348 54.3975C30.7386 55.2399 30.0755 56.0465 29.4481 56.8709C28.8029 57.7313 28.8029 58.484 29.4302 59.1114C30.1113 59.7745 31.2226 59.8641 31.9216 59.1472C32.7819 58.251 33.5347 57.2473 34.3054 56.2795C34.4667 56.0823 34.5025 55.7776 34.5563 55.6521ZM36.4383 59.667C37.0656 59.6491 37.5854 59.4161 37.9618 58.9142C38.1231 58.6991 38.1589 58.5378 37.9438 58.3048C36.9043 57.1577 36.5279 57.1756 35.7393 58.4303C35.5779 58.6991 35.2195 58.9501 35.3987 59.2727C35.6138 59.6311 36.044 59.667 36.4383 59.667Z" fill="white"/>
<path d="M30.882 0.0179234C35.1836 0.0179234 39.4852 0.0179234 43.7689 0C44.3425 0 44.8085 0.125464 45.2028 0.555625C47.6224 3.08282 50.0421 5.5921 52.4797 8.08345C52.9995 8.60323 53.1966 9.17678 53.1787 9.92956C53.1249 11.5068 53.1608 13.0841 53.1608 14.6793C53.1608 15.6113 52.6589 16.1848 51.8882 16.1669C51.1354 16.149 50.7053 15.6292 50.6873 14.6972C50.6694 13.7472 50.6515 12.7794 50.7053 11.8294C50.7411 11.1484 50.544 10.8974 49.827 10.9153C48.0347 10.9691 46.2423 10.9333 44.45 10.9333C43.1057 10.9333 42.7831 10.5927 42.7831 9.21263C42.7831 7.29482 42.7652 5.39494 42.8011 3.47714C42.819 2.8319 42.6218 2.59889 41.9407 2.59889C34.4846 2.61682 27.0105 2.61682 19.5544 2.59889C18.9092 2.59889 18.7479 2.81397 18.7479 3.42337C18.7658 7.15143 18.7658 10.8795 18.7658 14.6255C18.7658 15.5934 18.3535 16.149 17.5828 16.2027C16.7763 16.2565 16.2565 15.665 16.2565 14.6613C16.2386 10.3239 16.2565 6.00434 16.2565 1.66688C16.2565 0.537702 16.7584 0.0537702 17.9055 0.0537702C22.2429 0.0537702 26.5625 0.0537702 30.8999 0.0537702C30.882 0.0358468 30.882 0.0179234 30.882 0.0179234ZM48.9846 8.40607C49.0025 8.31646 49.0384 8.22684 49.0563 8.13722C47.8555 6.88258 46.6546 5.61002 45.4358 4.35538C45.2386 5.61002 45.2386 6.77504 45.2386 7.92214C45.2386 8.26269 45.382 8.40607 45.7226 8.40607C46.798 8.38815 47.8913 8.40607 48.9846 8.40607Z" fill="white"/>
<path d="M34.6816 16.2744C30.7922 16.2744 26.9207 16.2744 23.0314 16.2744C22.4757 16.2744 21.956 16.2027 21.5975 15.7188C21.2749 15.3065 21.2211 14.8405 21.4362 14.3745C21.6154 13.9264 21.9739 13.783 22.4399 13.783C25.3076 13.783 28.1754 13.7472 31.0431 13.7472C35.9004 13.7472 40.7755 13.7472 45.6328 13.7472C46.045 13.7472 46.4752 13.7651 46.8874 13.801C47.6581 13.8547 48.1241 14.2311 48.1241 15.0377C48.1241 15.8263 47.6402 16.2565 46.7799 16.2565C42.7471 16.2744 38.7143 16.2744 34.6816 16.2744Z" fill="white"/>
<path d="M29.3943 10.9153C27.2435 10.9153 25.0927 10.9332 22.9598 10.9153C21.9382 10.9153 21.3647 10.3059 21.526 9.42767C21.6694 8.63904 22.2071 8.38811 22.9598 8.40604C26.4728 8.42396 30.0037 8.40604 33.5167 8.40604C34.2874 8.40604 35.0761 8.38811 35.8468 8.40604C36.7967 8.42396 37.3703 8.90789 37.3703 9.6786C37.3703 10.4672 36.8326 10.9153 35.8647 10.9153C33.678 10.9153 31.5452 10.9153 29.3943 10.9153Z" fill="white"/>
<path d="M63.0901 35.1299C63.0901 35.8647 62.409 36.5279 61.6562 36.5458C60.8855 36.5638 60.2761 35.9364 60.2582 35.1299C60.2403 34.3233 60.8318 33.7319 61.6562 33.7498C62.4628 33.7498 63.0901 34.3592 63.0901 35.1299Z" fill="white"/>
<path d="M7.59963 33.7498C8.4241 33.7677 9.12311 34.4667 9.10519 35.2195C9.08727 35.9902 8.4241 36.5996 7.61755 36.5817C6.86477 36.5638 6.25537 35.9006 6.25537 35.112C6.25537 34.2875 6.82892 33.7319 7.59963 33.7498Z" fill="white"/>
</svg>
