<svg width="55" height="50" viewBox="0 0 55 50" fill="none" xmlns="http://www.w3.org/2000/svg">
<path d="M19.3557 22.9423C12.9194 18.1033 12.708 8.73069 18.2752 3.49238C23.443 -1.39358 31.5706 -1.1117 36.3861 4.07964C41.2955 9.34144 41.0371 18.0328 34.7183 22.9423C34.8357 23.1302 35.0706 23.1302 35.2351 23.2006C36.7149 23.7879 38.0539 24.5631 39.2519 25.5966C40.074 26.3014 40.1915 27.2645 39.5573 27.9926C38.9465 28.7208 37.9599 28.7443 37.1378 28.0631C35.0237 26.2779 32.5807 25.4557 29.8323 25.4792C27.9296 25.5027 26.0269 25.4792 24.1007 25.4792C18.6275 25.4792 14.2113 29.1672 13.2483 34.5464C13.0368 35.7209 13.0838 36.9189 13.1073 38.1169C13.1308 38.7277 13.4832 39.1035 14.1174 39.221C17.1241 39.8082 20.1544 40.1606 23.2081 40.3485C25.4631 40.4659 27.6947 40.5129 29.9498 40.3955C31.0068 40.3485 31.782 41.0297 31.782 41.9693C31.8055 42.9559 31.1243 43.6136 30.0437 43.6606C24.5235 43.919 19.0503 43.4727 13.6241 42.4861C11.2281 42.0398 9.81868 40.325 9.7717 37.882C9.72472 35.4625 9.91264 33.09 10.8992 30.835C12.5201 27.1705 15.2214 24.6101 18.9564 23.1302C19.1208 23.0832 19.2617 23.0597 19.3557 22.9423ZM27.037 22.2141C32.2753 22.2141 36.5505 17.9623 36.5505 12.7475C36.5505 7.53269 32.2753 3.25748 27.0605 3.25748C21.8457 3.25748 17.5704 7.5092 17.547 12.724C17.547 17.9388 21.7987 22.2141 27.037 22.2141Z" fill="white"/>
<path d="M44.4432 30.3182C49.799 30.3417 54.0742 34.6404 54.0742 39.9962C54.0507 45.3284 49.7285 49.6506 44.3962 49.6271C39.0404 49.6037 34.7417 45.2345 34.7652 39.8787C34.7887 34.5699 39.1344 30.2947 44.4432 30.3182ZM44.4432 46.268C48.0372 46.2446 50.856 43.4492 50.809 39.9257C50.7855 36.4022 47.9197 33.5364 44.3962 33.5599C40.8492 33.5833 38.0069 36.4491 38.0304 40.0197C38.0539 43.5197 40.8962 46.2915 44.4432 46.268Z" fill="white"/>
<path d="M6.90573 22.3785C6.50639 21.9322 6.08357 21.4859 5.73122 21.0161C1.52647 15.5899 3.57012 7.72065 9.91247 5.04277C10.8991 4.61995 11.8152 4.92532 12.2145 5.77097C12.6138 6.66359 12.238 7.55622 11.2044 8.02602C9.16078 8.94214 7.75137 10.422 7.09365 12.5831C6.03659 16.1066 7.77486 19.7476 11.1809 21.251C11.8622 21.5564 12.3554 21.9557 12.4024 22.7309C12.4729 23.647 11.9326 24.2812 10.946 24.4926C7.09365 25.3148 4.69765 27.7343 3.52314 31.4222C3.19428 32.4558 3.24126 33.5599 3.26475 34.6169C3.26475 34.9928 3.47616 35.2042 3.852 35.2746C4.36879 35.3686 4.88557 35.4626 5.40235 35.58C6.31847 35.7914 6.83526 36.5196 6.7413 37.4123C6.62384 38.2579 5.87216 38.8686 4.95604 38.7982C4.18086 38.7277 3.42918 38.6102 2.67749 38.3753C1.12714 37.9055 0.0935719 36.5196 0.0231014 34.8753C-0.258781 29.4256 2.04326 25.3618 6.69431 22.5899C6.74129 22.5664 6.78828 22.543 6.83526 22.496C6.85875 22.4255 6.88224 22.402 6.90573 22.3785Z" fill="white"/>
<path d="M47.027 22.3315C48.4129 23.0832 49.5405 23.9288 50.527 24.9624C50.715 25.1738 50.9264 25.3852 51.0908 25.5966C51.6311 26.3248 51.5606 27.2879 50.9264 27.8517C50.2452 28.4389 49.2821 28.3919 48.6478 27.7107C48.1076 27.1235 47.5673 26.5597 46.9096 26.0899C45.8055 25.2677 44.5605 24.7275 43.1981 24.4926C42.329 24.3281 41.7887 23.8348 41.6947 23.1067C41.6008 22.2845 41.9766 21.6737 42.8458 21.2979C45.7116 20.0059 47.2854 17.7744 47.2854 14.6502C47.2854 11.5495 45.735 9.31791 42.8927 8.02595C41.9061 7.57964 41.5068 6.68701 41.8827 5.81787C42.282 4.92525 43.1981 4.59638 44.2082 5.0427C50.9734 7.93199 52.7351 16.6469 47.5908 21.9087C47.4263 22.0496 47.2619 22.167 47.027 22.3315Z" fill="white"/>
<path d="M40.0737 39.9726C40.0737 39.033 40.7549 38.3518 41.765 38.3048C42.7751 38.2578 42.7751 38.2578 42.7986 37.2712C42.8221 36.2847 43.5033 35.58 44.3959 35.58C45.2886 35.58 45.9698 36.2377 46.0637 37.1773C46.0872 37.5296 45.9228 37.976 46.1577 38.2109C46.3926 38.4692 46.8389 38.2813 47.1913 38.3048C48.1544 38.3988 48.8591 39.1035 48.8121 39.9961C48.7651 40.9122 48.0604 41.57 47.0738 41.57C46.1107 41.5934 46.1107 41.5934 46.0637 42.58C46.0167 43.6371 45.3355 44.3418 44.3724 44.3183C43.4328 44.2948 42.8221 43.5901 42.7986 42.5331C42.7751 41.5934 42.7751 41.5934 41.812 41.57C40.7784 41.57 40.0737 40.9122 40.0737 39.9726Z" fill="white"/>
</svg>
