<svg width="55" height="53" viewBox="0 0 55 53" fill="none" xmlns="http://www.w3.org/2000/svg">
<path d="M20.019 50.3792C17.2874 48.3926 15.7354 45.6921 15.2387 42.3707C14.9283 40.4462 14.9283 40.4462 17.1943 40.4462C17.9082 40.5083 18.9636 40.6946 19.274 39.1736C19.3671 38.6148 19.3982 38.3044 18.9636 37.932C16.2941 35.3866 13.6246 32.8413 10.9552 30.265C10.4895 29.7994 10.2102 29.8614 9.77561 30.296C7.32342 32.6861 4.80914 35.0452 2.32591 37.4353C1.20845 38.4907 1.23949 38.4907 1.79822 39.9496C1.95342 40.3531 2.1707 40.5083 2.60527 40.4773C3.4744 40.4462 4.37458 40.5083 5.24371 40.4462C5.70932 40.4152 5.86452 40.6014 5.95764 41.036C6.36117 42.7743 7.01301 44.3884 7.97527 45.8473C10.3964 49.479 13.904 51.4966 18.0324 52.552C19.9569 53.0487 19.4602 53.2039 20.2673 51.4346C20.5156 50.9379 20.4225 50.6896 20.019 50.3792ZM9.40313 43.5503C8.59608 42.0293 8.13047 40.3841 7.91319 38.708C7.85111 38.2113 7.63382 38.0561 7.16822 38.0872C6.51637 38.1182 5.89556 38.0872 5.24371 38.0872C5.74036 37.5284 6.20596 37.0007 6.70261 36.5041C7.75799 35.4487 8.8444 34.4244 9.93082 33.4C10.1171 33.2138 10.2723 32.9344 10.6137 33.2448C12.2278 34.7969 13.8419 36.3489 15.456 37.9009C15.425 37.963 15.425 38.0251 15.3939 38.0872C14.68 38.0872 13.9661 38.1182 13.2521 38.0872C12.7555 38.0561 12.5693 38.2424 12.5693 38.739C12.5693 42.2155 13.0349 45.5989 14.9904 48.5788C15.0525 48.6409 15.0525 48.7651 15.1456 48.9824C12.6313 47.7097 10.6758 46.0025 9.40313 43.5503Z" fill="white"/>
<path d="M20.1431 19.9906C20.1431 27.3161 25.9787 33.1827 33.3042 33.2138C40.5366 33.2448 46.4343 27.3782 46.4654 20.1458C46.4964 12.8512 40.6608 6.92252 33.3973 6.89148C26.1339 6.86044 20.1741 12.7581 20.1431 19.9906ZM33.3042 9.28159C39.264 9.28159 44.1063 14.0929 44.1063 20.0526C44.1063 26.0434 39.295 30.8547 33.3353 30.8547C27.3445 30.8547 22.5332 26.0745 22.5332 20.0837C22.5332 14.0929 27.3445 9.25055 33.3042 9.28159Z" fill="white"/>
<path d="M42.2126 31.8791C38.674 35.5418 34.4525 36.7214 29.5481 35.2314C27.3752 34.5796 25.637 33.2759 24.147 31.5997C23.8056 31.2272 23.5573 31.1651 23.0917 31.4445C21.819 32.1895 20.5463 32.9344 19.4289 33.9277C17.9079 35.2625 17.9079 34.7348 19.3668 36.3178C19.6772 36.6593 19.8945 36.6903 20.2359 36.3489C20.9188 35.666 21.7259 35.1383 22.5019 34.5796C23.0296 34.2071 23.34 34.176 23.8677 34.6417C26.7234 37.1559 30.1068 38.3355 33.8937 38.1803C37.3392 38.0561 40.3812 36.7834 42.9576 34.4554C43.268 34.176 43.4852 34.176 43.8267 34.3933C45.3477 35.3866 46.7445 36.5351 47.924 37.9319C50.7177 41.2222 51.9282 45.1023 52.1145 49.3548C52.1455 50.5654 52.1455 50.5654 50.997 50.5654C42.3367 50.5654 33.6765 50.5654 25.0472 50.5654C23.371 50.5654 23.6814 50.4102 23.6504 51.9622C23.6504 52.9555 23.6504 52.9555 24.6747 52.9555C29.455 52.9555 34.2352 52.9555 39.0154 52.9555C43.8888 52.9555 48.7932 52.9555 53.6665 52.9555C54.1011 52.9555 54.4736 52.9866 54.5046 52.3658C54.7219 48.3305 54.2563 44.4194 52.5491 40.7256C50.6866 36.7524 47.7067 33.8656 43.9198 31.6928C43.1438 31.2272 42.8024 31.2893 42.2126 31.8791Z" fill="white"/>
<path d="M16.7905 21.2321C18.6839 21.2941 18.2494 21.3252 18.2183 19.7111C18.2183 19.0282 17.97 18.8419 17.2871 18.8419C13.4381 18.7799 10.0857 16.0483 9.37178 12.4476C8.56473 8.41235 10.4272 4.6875 14.0899 3.07339C17.6285 1.49033 21.788 2.60779 24.116 5.77391C25.0472 7.01553 25.0472 7.01553 26.444 6.27056C26.8476 6.05328 26.9717 5.89807 26.7234 5.46351C24.5195 1.80073 21.2913 -0.0306524 17.0388 0.000388024C16.8215 0.0314285 16.6353 0.0314285 16.418 0.0624689C11.0169 0.497035 6.7023 5.24622 6.79542 10.7404C6.85751 16.2966 11.3273 21.0148 16.7905 21.2321Z" fill="white"/>
<path d="M1.30145 33.1827C2.17058 33.3689 2.32578 33.0585 2.48098 32.3136C3.22596 28.3404 5.11942 25.0811 8.40971 22.66C8.84428 22.3185 9.12364 22.3185 9.58925 22.691C11.7 24.4914 14.1832 25.3915 17.0079 25.4226C17.3494 25.3915 17.7218 25.4226 18.0633 25.3605C20.3913 25.0501 19.8947 25.2363 19.4912 23.3429C19.398 22.8773 19.1497 22.7841 18.7151 22.8773C15.2386 23.467 12.3518 22.4117 9.99277 19.8353C9.58925 19.3697 9.30988 19.3386 8.7822 19.6491C4.09509 22.2875 1.36353 26.3228 0.215031 31.5065C-0.188495 33.2758 -0.126414 32.8412 1.30145 33.1827Z" fill="white"/>
</svg>
